<svg id="Capa_1" enable-background="new 0 0 235.067 235.067" height="512" viewBox="0 0 235.067 235.067" width="512" xmlns="http://www.w3.org/2000/svg">
  <path fill="#61cc2e" d="m148.881 109.698v-23.507c0-2.167-1.755-3.918-3.918-3.918h-27.425v-31.342c0-11.095 8.165-19.789 18.586-19.789 10.97 0 20.592 9.246 20.592 19.789 0 2.167 1.755 3.918 3.918 3.918h23.507c2.163 0 3.918-1.751 3.918-3.918 0-27.608-23.781-50.931-51.934-50.931-27.53 0-49.928 22.849-49.928 50.931v31.342h-27.425c-2.163 0-3.918 1.751-3.918 3.918v23.507c0 2.167 1.755 3.918 3.918 3.918h27.425v70.52c0 10.617-8.972 19.589-19.589 19.589s-19.589-8.972-19.589-19.589c0-2.167-1.755-3.918-3.918-3.918h-23.507c-2.163 0-3.918 1.751-3.918 3.918 0 28.083 22.849 50.931 50.931 50.931s50.931-22.849 50.931-50.931v-70.52h27.425c2.163 0 3.918-1.751 3.918-3.918z"/>
  <path fill="#61cc2e" d="m201.736 195.89 13.207-13.207c5.932-5.932 5.932-15.585 0-21.513-5.935-5.932-15.585-5.932-21.517 0l-13.207 13.203-13.207-13.203c-5.932-5.932-15.585-5.932-21.517 0s-5.932 15.585 0 21.513l13.207 13.207-13.207 13.207c-5.932 5.932-5.932 15.585 0 21.513 2.966 2.966 6.86 4.451 10.758 4.451 3.894 0 7.792-1.485 10.758-4.451l13.207-13.203 13.207 13.203c5.932 5.932 15.589 5.932 21.517 0 5.932-5.932 5.932-15.585 0-21.513z"/>
</svg>
