<svg id="Capa_1" enable-background="new 0 0 465.294 465.294" height="512" viewBox="0 0 465.294 465.294" width="512" xmlns="http://www.w3.org/2000/svg"><path d="m415.441 432.059h-49.853v-156.943c0-78.398-59.638-142.175-132.941-142.175s-132.941 63.777-132.941 142.175v156.943h-49.853c-9.185 0-16.618 7.432-16.618 16.618 0 9.185 7.433 16.618 16.618 16.618h365.588c9.185 0 16.618-7.432 16.618-16.618s-7.433-16.618-16.618-16.618zm-282.5 0v-156.943c0-60.077 44.725-108.94 99.706-108.94s99.706 48.863 99.706 108.94v156.943z"/><path d="m216.029 0h33.235v66.471h-33.235z"/><path id="path-1_55_" d="m398.823 249.265h66.471v33.235h-66.471z" transform="translate(13 8.5)"/><path id="path-1_54_" d="m0 249.265h66.471v33.235h-66.471z" transform="translate(1 8.5)"/><path d="m172.425 304.841h66.464v33.232h-66.464z" transform="matrix(.707 -.707 .707 .707 .929 9.757)"/><path d="m-45.797 95.518h33.232v66.464h-33.232z" transform="matrix(.707 -.707 .707 .707 -2.263 3.464)"/></svg>