<svg xmlns="http://www.w3.org/2000/svg" width="124pt" height="124pt" viewBox="0 0 124 124" version="1.1">
<g id="surface1">
  <path fill="#FFFFFF" fill-opacity="0.9" d="M 106.128906 28.695312 C 105.867188 20.761719 105.722656 12.804688 105.800781 4.863281 C 105.804688 4.511719 105.746094 4.199219 105.667969 3.90625 C 105.824219 2.175781 104.804688 0.347656 102.589844 0.40625 C 74.621094 1.140625 46.660156 0.0429688 18.691406 0 C 16.367188 -0.00390625 15.347656 2.039062 15.632812 3.832031 C 15.539062 4.144531 15.476562 4.480469 15.480469 4.863281 C 15.902344 38.238281 17.050781 86.1875 17.085938 119.566406 C 17.085938 120.3125 17.300781 120.921875 17.640625 121.402344 C 17.84375 122.820312 18.863281 124.070312 20.699219 124.023438 C 32.789062 123.726562 44.882812 123.53125 56.960938 122.9375 C 67.726562 122.410156 81.144531 123.117188 91.433594 119.601562 C 95.074219 118.359375 98.335938 116.519531 101.128906 113.855469 C 106.238281 108.988281 107.980469 102.453125 108.421875 95.566406 C 108.84375 88.949219 108.0625 82.011719 107.910156 75.917969 C 107.511719 60.175781 106.648438 44.4375 106.128906 28.695312 Z M 88.433594 90.984375 C 86.464844 90.996094 84.5625 92.535156 85.441406 94.894531 C 87.210938 99.640625 88.019531 105.539062 85.300781 110.082031 C 82.011719 115.570312 76.140625 115.421875 70.5625 116.125 C 67.148438 116.554688 63.519531 116.328125 60.078125 116.425781 C 57.40625 116.503906 23.5 117.328125 23.5 117.460938 C 23.421875 85.332031 22.359375 38.628906 21.929688 6.507812 C 47.75 6.617188 73.566406 7.503906 99.386719 6.953125 C 99.296875 30.566406 101.605469 68.695312 101.761719 92.300781 C 97.757812 91.039062 93.617188 90.503906 89.34375 90.789062 C 89.007812 90.808594 88.710938 90.886719 88.433594 90.984375 Z M 90.957031 112.941406 C 93.546875 108.523438 94.195312 103.101562 92.847656 97.222656 C 95.96875 97.34375 99.050781 97.949219 101.964844 99.183594 C 101.976562 99.222656 101.984375 99.261719 102 99.296875 C 101.054688 106.261719 96.648438 110.535156 90.957031 112.941406 Z M 90.957031 112.941406 "/>
  <path fill="#FFFFFF" fill-opacity="0.9" d="M 85.25 59.058594 L 37.949219 59.058594 C 33.019531 59.058594 33.019531 66.777344 37.949219 66.777344 L 85.25 66.777344 C 90.183594 66.777344 90.183594 59.058594 85.25 59.058594 Z M 85.25 59.058594 "/>
  <path fill="#FFFFFF" fill-opacity="0.9" d="M 85.25 76.042969 L 37.949219 76.042969 C 33.019531 76.042969 33.019531 83.761719 37.949219 83.761719 L 85.25 83.761719 C 90.183594 83.761719 90.183594 76.042969 85.25 76.042969 Z M 85.25 76.042969 "/>
  <path fill="#FFFFFF" fill-opacity="0.9" d="M 85.25 43.617188 L 36.039062 43.617188 C 31.109375 43.617188 31.109375 51.335938 36.039062 51.335938 L 85.253906 51.335938 C 90.183594 51.335938 90.183594 43.617188 85.25 43.617188 Z M 85.25 43.617188 "/>
  <path fill="#FFFFFF" fill-opacity="0.9" d="M 35.65625 33.582031 C 44.445312 33.226562 76.074219 33.195312 84.867188 33.195312 C 89.796875 33.195312 89.800781 25.472656 84.867188 25.476562 C 76.074219 25.476562 44.445312 25.503906 35.65625 25.863281 C 30.746094 26.058594 30.726562 33.78125 35.65625 33.582031 Z M 35.65625 33.582031 "/>
</g>
</svg>
