<svg id="Capa_1" enable-background="new 0 0 512 512" height="512" viewBox="0 0 512 512" width="512" xmlns="http://www.w3.org/2000/svg">
  <path fill="#61cc2e" d="m497 214.341c8.284 0 15-6.716 15-15v-59.606c0-8.284-6.716-15-15-15h-90.283l19.078-107.058c.778-4.368-.417-8.856-3.265-12.259-2.848-3.402-7.055-5.37-11.492-5.373l-60.666-.045c-.004 0-.007 0-.011 0-7.258 0-13.476 5.197-14.762 12.341l-20.247 112.394h-69.653l19.652-106.89c.804-4.376-.376-8.883-3.22-12.304-2.845-3.421-7.062-5.401-11.511-5.408l-61.42-.088c-.007 0-.014 0-.021 0-7.245 0-13.457 5.18-14.757 12.309l-20.494 112.381h-138.928c-8.284 0-15 6.716-15 15v59.606c0 8.284 6.716 15 15 15h122.586l-12.837 70.394h-109.749c-8.284 0-15 6.716-15 15v59.606c0 8.284 6.716 15 15 15h93.408l-21.699 118.987c-.798 4.377.388 8.883 3.238 12.3 2.85 3.416 7.07 5.392 11.519 5.392h60.721c7.238 0 13.444-5.169 14.753-12.288l22.869-124.391h70.579l-21.51 119.406c-.783 4.348.39 8.82 3.208 12.225 2.817 3.403 6.992 5.392 11.41 5.434l61.504.593c.049.001.098.001.147.001 7.261 0 13.489-5.207 14.766-12.368l22.327-125.291h134.76c8.284 0 15-6.716 15-15v-59.606c0-8.284-6.716-15-15-15h-118.794l12.544-70.394zm-280.718 70.393 12.942-70.394h69.985l-12.681 70.394z"/>
</svg>
