<!-- Generated by IcoMoon.io -->
<svg version="1.1" xmlns="http://www.w3.org/2000/svg" width="48" height="48" viewBox="0 0 48 48">
<title>quotes-left</title>
<path fill="#61cc2e" fill-opacity="0.9" d="M10.547 21c5.799 0 10.5 4.701 10.5 10.5s-4.701 10.5-10.5 10.5-10.5-4.701-10.5-10.5l-0.047-1.5c0-11.598 9.402-21 21-21v6c-4.007 0-7.773 1.56-10.607 4.393-0.545 0.545-1.043 1.126-1.492 1.735 0.536-0.084 1.086-0.129 1.645-0.129zM37.547 21c5.799 0 10.5 4.701 10.5 10.5s-4.701 10.5-10.5 10.5-10.5-4.701-10.5-10.5l-0.047-1.5c0-11.598 9.402-21 21-21v6c-4.007 0-7.773 1.56-10.607 4.393-0.545 0.545-1.043 1.126-1.492 1.735 0.536-0.084 1.086-0.129 1.646-0.129z"></path>
</svg>
