<?xml version="1.0" encoding="utf-8"?>
<svg width="22" height="16" xmlns="http://www.w3.org/2000/svg">
  <path fill="#424242" fill-opacity="0.6" d="M4.7 15a230.66 230.66 0 0 1 1.12-3.41c0-.06 0-.06-.08-.08l-1.59-.02h-1.5v-1.7h3.78L7 8.02c.32-.96.58-1.76.57-1.77-.02-.02-.38-.03-1.7-.03H4.43V4.5h.47a120.56 120.56 0 0 1 3.22-.04h.07l.59-1.74L9.36 1h1.81l-.22.66a89.35 89.35 0 0 0-.9 2.81c.01.02 1.76.04 3.04.03h1.26l.58-1.74.58-1.74a69.44 69.44 0 0 1 1.82 0 179.74 179.74 0 0 0-1.14 3.46c0 .01.72.02 1.59.02h1.58v1.73h-1.4l-1.88.02h-.5l-.57 1.73-.59 1.76v.03h3.15v1.73h-3.73l-.59 1.75-.58 1.75h-.88c-.63 0-.89 0-.9-.02-.02-.02.12-.47.56-1.74L12 11.5c-.01-.01-4.34 0-4.34.02l-.58 1.74L6.5 15H4.68h.01zm8.23-6.27c.55-1.65.82-2.47.8-2.48h-4.3l-.59 1.73-.56 1.76c.05.02.44.03 2.32.02h2l.34-1.03h-.01z"/>
</svg>