<svg xmlns="http://www.w3.org/2000/svg" xmlns:xlink="http://www.w3.org/1999/xlink" width="16pt" height="16pt" viewBox="0 0 16 16" version="1.1">
  <g id="surface1">
    <path fill="#000000" fill-opacity="0.9" d="M 11.070312 7.730469 L 6.847656 4.84375 C 6.714844 4.746094 6.367188 4.746094 6.335938 5.113281 L 6.335938 10.886719 C 6.367188 11.253906 6.726562 11.257812 6.847656 11.15625 L 11.070312 8.269531 C 11.179688 8.203125 11.328125 7.933594 11.070312 7.730469 Z M 6.992188 10.273438 L 6.992188 5.726562 L 10.304688 8 Z M 6.992188 10.273438 "/>
    <path fill="#000000" fill-opacity="0.9" d="M 8 0.34375 C 3.777344 0.34375 0.34375 3.777344 0.34375 8 C 0.34375 12.222656 3.777344 15.65625 8 15.65625 C 12.222656 15.65625 15.65625 12.222656 15.65625 8 C 15.65625 3.777344 12.222656 0.34375 8 0.34375 Z M 8 15.003906 C 4.136719 15.003906 0.996094 11.863281 0.996094 8 C 0.996094 4.136719 4.136719 0.996094 8 0.996094 C 11.863281 0.996094 15.003906 4.136719 15.003906 8 C 15.003906 11.863281 11.863281 15.003906 8 15.003906 Z M 8 15.003906 "/>
  </g>
</svg>
