<svg xmlns="http://www.w3.org/2000/svg" xmlns:xlink="http://www.w3.org/1999/xlink" width="320" height="320"><defs><clipPath id="b"><use xlink:href="#a"/></clipPath><path id="a" d="M180 140c20-60 0-110-60-110S10 80 10 150s50 120 110 120q40 0 60-50 20 10 35-5 25 10 35-5 20 5 30-10 30 0 30-30t-130-30z"/></defs><rect width="100" height="90" x="80" y="230" fill="#543729" rx="60" ry="30" transform="rotate(-15 80 230)"/><g clip-path="url(#b)"><path fill="#ef5734" d="M0 0h320v320H0z"/><path fill="#2baf2b" d="M320 60L0 320h320z"/><path fill="#ffcc2f" d="M0 320h220l-50-120q20 10 30-5 30 5 30-15 30 0 30-20 40 0 60-20H180q-40 70-100 50-30 20-80-10"/></g><g stroke="#543729" stroke-width="5"><use fill="none" stroke-width="20" xlink:href="#a"/><path fill="#00acee" d="M210 120q-30-60 60-80-10 10-10 30 0 40-50 50z"/><path fill="#cecece" d="M180 80q-20 20 0 40l25-10-2-10q17 0 37 10-20-30-60-30z"/></g><circle cx="120" cy="90" r="20" fill="#543729" stroke="#ffcc2f" stroke-width="10"/><ellipse cx="120" cy="85" fill="#fff" rx="8" ry="6"/></svg>