<svg xmlns="http://www.w3.org/2000/svg" xmlns:xlink="http://www.w3.org/1999/xlink" width="320" height="320"><g fill="#a00"><circle cx="160" cy="160" r="120"/><path id="a" d="M0 120h80v80H0z"/><use transform="rotate(60 160 160)" xlink:href="#a"/><use transform="rotate(120 160 160)" xlink:href="#a"/><use transform="rotate(180 160 160)" xlink:href="#a"/><use transform="rotate(240 160 160)" xlink:href="#a"/><use transform="rotate(300 160 160)" xlink:href="#a"/></g><g fill="#fff"><path d="M150 80c50 35 50 55 25 80q-35 35-20 75l15 5q-20-35 10-70c30-35 30-55-30-90"/><path d="M115 140q25 5 35 30 0-35-35-30"/><path d="M125 120q30 5 35 30 5-35-35-30"/><path d="M145 105q25 5 30 25 2.5-27.5-30-25"/></g></svg>