<svg xmlns="http://www.w3.org/2000/svg" width="320" height="320"><defs><mask id="c"><path fill="#fff" d="M0 0h320v320H0z"/><path d="M180 40v60h60z"/><path mask="url(#a)" transform="translate(70 120) scale(.5625)" d="M0 0h320v320H0z"/></mask><mask id="b"><path fill="#fff" d="M-80-80h480v480H-80z"/><ellipse cx="40" cy="120" rx="190" ry="145"/></mask><mask id="a"><g fill="#fff"><ellipse cx="120" cy="120" mask="url(#b)" rx="200" ry="140" transform="rotate(45 120 120)"/><path d="M280 220q40 30 40 80-40-45-90-20m-50-60Q100 160 30 60l125 95q-35-35-85-105 80 70 160 120"/></g></mask></defs><path fill="#f05239" mask="url(#c)" d="M40 0v320h240V100L180 0z"/></svg>