<svg xmlns="http://www.w3.org/2000/svg" width="320" height="320"><path fill="#f68712" d="M40 60h280v200H40z"/><path fill="none" stroke="#f68712" stroke-width="20" d="M150 70l40-40h120v40"/><g fill="#fff"><path d="M120 100h120v120H120z"/><path d="M100 80l20 80 60-60zm0 0v40l20 40z"/><path d="M100 80h40l40 20zm160 0l-80 20 60 60z"/><path d="M260 80h-40l-40 20zm0 0v40l-20 40zM100 240l80-20-60-60zm0 0h40l40-20z"/><path d="M100 240v-40l20-40zm160 0l-20-80-60 60z"/><path d="M260 240v-40l-20-40zm0 0h-40l-40-20z"/></g></svg>