<svg xmlns="http://www.w3.org/2000/svg" xmlns:xlink="http://www.w3.org/1999/xlink" width="320" height="320"><defs><clipPath id="b"><circle cx="160" cy="160" r="120"/><path id="a" d="M120 0h80v80h-80z"/><use transform="rotate(60 160 160)" xlink:href="#a"/><use transform="rotate(120 160 160)" xlink:href="#a"/><use transform="rotate(180 160 160)" xlink:href="#a"/><use transform="rotate(240 160 160)" xlink:href="#a"/><use transform="rotate(300 160 160)" xlink:href="#a"/></clipPath></defs><g clip-path="url(#b)" transform="rotate(30 160 160)"><path fill="#3f7fbf" d="M-80-80h240v480H-80z"/><path fill="#ffdf3f" d="M160-80h240v480H160z"/></g><g fill="#fff" transform="matrix(.5 0 0 .5 80 80)"><ellipse cx="30" cy="160" rx="30" ry="80"/><path d="M30 80h130v160H30z"/><ellipse cx="290" cy="160" rx="30" ry="80"/><path d="M160 80h130v160H160z"/><ellipse cx="160" cy="30" rx="80" ry="30"/><path d="M80 30h160v30H80z"/><rect width="80" height="130" x="160" y="30" rx="40" ry="40"/><path d="M160 80h40v80h-40z"/><ellipse cx="160" cy="290" rx="80" ry="30"/><path d="M80 260h160v30H80z"/><rect width="80" height="130" x="80" y="160" rx="40" ry="40"/><path d="M120 160h40v80h-40z"/></g></svg>