<svg xmlns="http://www.w3.org/2000/svg" width="320" height="320"><path fill="#bf9f5f" d="M0 60h320v260H0z"/><path fill="#dfbf7f" d="M60 0h200l60 60H0z"/><path fill="#7f7f7f" d="M140 0h40l20 60h-80z"/><path fill="#3f3f3f" d="M150 0h20l10 60h-40z"/><path fill="#bfbfbf" d="M160 0h10l2 10h-24l-2 15h28l3 15h-34l-3 20h20z"/><path fill="none" stroke="#d70751" stroke-linecap="round" stroke-width="20" d="M160 290q-80-20-80-110a80 90 0 0180-90 80 70 0 0180 70 60 60 0 01-60 60 40 40 0 01-40-40 35 35 0 0150-30"/></svg>