<svg xmlns="http://www.w3.org/2000/svg" width="320" height="320"><defs><linearGradient id="b" x1="0" x2="1" y1="0" y2="0"><stop offset="0%" stop-color="#ffbf5f"/><stop offset="100%" stop-color="#f76757"/></linearGradient><linearGradient id="c" x1="0" x2="1" y1="0" y2="0"><stop offset="0%" stop-color="#d74737"/><stop offset="50%" stop-color="#ffbf47"/><stop offset="100%" stop-color="#ffdf9f"/></linearGradient><clipPath id="a"><path d="M160 120q-30 0-60-20-15-10-30-10a70 70 0 00-70 70 70 70 0 0070 70q15 0 30-10 30-20 60-20t60 20q15 10 30 10a70 70 0 0070-70 70 70 0 00-70-70q-15 0-30 10-30 20-60 20"/></clipPath></defs><g clip-path="url(#a)"><path fill="url(#b)" d="M0 0h320v320H0z"/><path fill="none" stroke="url(#c)" stroke-width="40" d="M10 80c-70 100 20 160 90 120l120-80c70-40 160 20 90 120"/></g></svg>