<?xml version="1.0" encoding="utf-8"?>
<svg xmlns="http://www.w3.org/2000/svg" width="28" height="28" fill="black" viewBox="0 0 28 28">
    <path d="M 9.647 13.975 C 9.493 17.32 13.019 19.577 15.992 18.036 C 17.502 17.254 18.418 15.664 18.337 13.965 C 18.177 10.621 14.455 8.704 11.639 10.515 C 10.453 11.277 9.711 12.568 9.647 13.975 Z"/>
    <path cx="14" d="M 15.852 1.106 C 15.757 1.202 15.69 1.334 15.69 1.468 L 15.69 6.637 C 21.317 7.993 23.367 14.932 19.378 19.128 C 18.379 20.178 17.1 20.918 15.69 21.256 L 15.69 26.52 C 15.689 26.909 16.109 27.152 16.446 26.958 C 16.491 26.932 16.532 26.9 16.567 26.863 L 27.493 15.279 C 28.169 14.556 28.169 13.432 27.493 12.709 L 16.567 1.135 C 16.374 0.933 16.054 0.925 15.852 1.116 Z M 11.436 1.125 L 0.509 12.719 C -0.17 13.438 -0.17 14.561 0.509 15.279 L 11.436 26.853 C 11.706 27.132 12.177 27.013 12.283 26.64 C 12.294 26.597 12.301 26.554 12.303 26.51 L 12.303 21.246 C 6.676 19.89 4.626 12.951 8.615 8.756 C 9.614 7.706 10.893 6.967 12.303 6.626 L 12.303 1.468 C 12.296 1.193 12.073 0.974 11.797 0.974 C 11.662 0.974 11.531 1.029 11.436 1.125 Z"/>
</svg>
