<svg xmlns="http://www.w3.org/2000/svg" xmlns:xlink="http://www.w3.org/1999/xlink" width="16pt" height="16pt" viewBox="0 0 16 16" version="1.1">
  <g id="surface1">
    <path fill="#FFFFFF" fill-opacity="1" d="M 4.265625 11.734375 L 11.734375 11.734375 L 11.734375 4.265625 L 4.265625 4.265625 Z M 4.800781 4.800781 L 11.199219 4.800781 L 11.199219 11.199219 L 4.800781 11.199219 Z M 4.800781 4.800781 "/>
    <path fill="#FFFFFF" fill-opacity="1" d="M 8 0 C 3.589844 0 0 3.589844 0 8 C 0 12.410156 3.589844 16 8 16 C 12.410156 16 16 12.410156 16 8 C 16 3.589844 12.410156 0 8 0 Z M 8 15.464844 C 3.882812 15.464844 0.535156 12.117188 0.535156 8 C 0.535156 3.882812 3.882812 0.535156 8 0.535156 C 12.117188 0.535156 15.464844 3.882812 15.464844 8 C 15.464844 12.117188 12.117188 15.464844 8 15.464844 Z M 8 15.464844 "/>
  </g>
</svg>
