<svg xmlns="http://www.w3.org/2000/svg" xmlns:xlink="http://www.w3.org/1999/xlink" width="320" height="320"><defs><mask id="c"><path fill="#fff" d="M0 0h320v320H0z"/><path mask="url(#a)" transform="matrix(.5 0 0 .5 80 80)" d="M0 0h320v320H0z"/></mask><mask id="b"><path fill="#fff" d="M-80-80h480v480H-80z"/><ellipse cx="40" cy="120" rx="190" ry="145"/></mask><mask id="a"><g fill="#fff"><ellipse cx="120" cy="120" mask="url(#b)" rx="200" ry="140" transform="rotate(45 120 120)"/><path d="M280 220q40 30 40 80-40-45-90-20m-50-60Q100 160 30 60l125 95q-35-35-85-105 80 70 160 120"/></g></mask></defs><g fill="#bfbfbf" mask="url(#c)"><circle cx="160" cy="160" r="120"/><path id="d" d="M0 120h80v80H0z"/><use transform="rotate(60 160 160)" xlink:href="#d"/><use transform="rotate(120 160 160)" xlink:href="#d"/><use transform="rotate(180 160 160)" xlink:href="#d"/><use transform="rotate(240 160 160)" xlink:href="#d"/><use transform="rotate(300 160 160)" xlink:href="#d"/></g></svg>