<svg xmlns="http://www.w3.org/2000/svg" width="320" height="320"><defs><mask id="b"><path fill="#fff" d="M0 0h320v320H0z"/><text x="35" y="155" font-family="Arial" font-size="120">6</text></mask><mask id="c"><path fill="#fff" d="M0 0h320v320H0z"/><text x="215" y="155" font-family="Arial" font-size="120">6</text></mask><mask id="d"><path fill="#fff" d="M0 0h320v320H0z"/><ellipse cx="90" cy="220" rx="25" ry="30"/></mask><mask id="e"><path fill="#fff" d="M0 0h320v320H0z"/><ellipse cx="230" cy="220" rx="25" ry="30"/></mask><mask id="a"><path fill="#fff" d="M0 0h320v320H0z"/><g fill="none" stroke="#000" stroke-width="10"><circle cx="130" cy="160" r="15"/><circle cx="190" cy="160" r="15"/></g></mask></defs><g fill="#bfbfbf" mask="url(#a)"><ellipse cx="70" cy="110" mask="url(#b)" rx="60" ry="70" transform="rotate(135 70 110)"/><ellipse cx="250" cy="110" mask="url(#c)" rx="60" ry="70" transform="rotate(45 250 110)"/><ellipse cx="90" cy="220" mask="url(#d)" rx="50" ry="60" transform="rotate(45 90 220)"/><ellipse cx="230" cy="220" mask="url(#e)" rx="50" ry="60" transform="rotate(-45 230 220)"/><ellipse cx="160" cy="180" rx="50" ry="40"/></g></svg>