<svg xmlns="http://www.w3.org/2000/svg" width="320" height="320"><defs><mask id="a"><path fill="#fff" d="M0 0h320v320H0z"/><path d="M30 65L0 80v160l30 15z" transform="matrix(.5 0 0 .5 100 80)"/><path d="M30 65l290 215-80 40L0 80z" transform="matrix(.5 0 0 .5 100 80)"/><path d="M30 255L320 40 240 0 0 240z" transform="matrix(.5 0 0 .5 100 80)"/><path d="M240 0l80 40v240l-80 40z" transform="matrix(.5 0 0 .5 100 80)"/></mask></defs><path fill="#bfbfbf" mask="url(#a)" d="M40 60h280v200H40z"/><path fill="none" stroke="#bfbfbf" stroke-width="20" d="M150 70l40-40h120v40"/></svg>