<svg xmlns="http://www.w3.org/2000/svg" width="320" height="320"><defs><mask id="a"><path fill="#fff" d="M0 0h320v320H0z"/><g transform="matrix(.5 0 0 .5 100 80)"><ellipse cx="30" cy="160" rx="30" ry="80"/><path d="M30 80h130v160H30z"/><ellipse cx="290" cy="160" rx="30" ry="80"/><path d="M160 80h130v160H160z"/><ellipse cx="160" cy="30" rx="80" ry="30"/><path d="M80 30h160v30H80z"/><rect width="80" height="130" x="160" y="30" rx="40" ry="40"/><path d="M160 80h40v80h-40z"/><ellipse cx="160" cy="290" rx="80" ry="30"/><path d="M80 260h160v30H80z"/><rect width="80" height="130" x="80" y="160" rx="40" ry="40"/><path d="M120 160h40v80h-40z"/></g></mask></defs><path fill="#3f3f3f" mask="url(#a)" d="M40 60h280v200H40z"/><path fill="none" stroke="#3f3f3f" stroke-width="20" d="M150 70l40-40h120v40"/></svg>