<svg xmlns="http://www.w3.org/2000/svg" width="320" height="320"><defs><mask id="a"><path fill="#fff" d="M0 0h320v320H0z"/><path d="M40 40h240v240H40z" transform="matrix(.5 0 0 .5 100 80)"/><path d="M0 0l40 160L160 40zm0 0v80l40 80z" transform="matrix(.5 0 0 .5 100 80)"/><path d="M0 0h80l80 40zm320 0L160 40l120 120z" transform="matrix(.5 0 0 .5 100 80)"/><path d="M320 0h-80l-80 40zm0 0v80l-40 80zM0 320l160-40L40 160zm0 0h80l80-40z" transform="matrix(.5 0 0 .5 100 80)"/><path d="M0 320v-80l40-80zm320 0l-40-160-120 120z" transform="matrix(.5 0 0 .5 100 80)"/><path d="M320 320v-80l-40-80zm0 0h-80l-80-40z" transform="matrix(.5 0 0 .5 100 80)"/></mask></defs><path fill="#3f3f3f" mask="url(#a)" d="M40 60h280v200H40z"/><path fill="none" stroke="#3f3f3f" stroke-width="20" d="M150 70l40-40h120v40"/></svg>