<svg xmlns="http://www.w3.org/2000/svg" xmlns:xlink="http://www.w3.org/1999/xlink" width="320" height="320"><defs><mask id="a"><path fill="#fff" d="M0 0h320v320H0z"/><path d="M140 0c100 70 100 110 50 160q-70 70-40 150l30 10q-40-70 20-140c60-70 60-110-60-180" transform="matrix(.5 0 0 .5 80 80)"/><path d="M70 120q50 10 70 60 0-70-70-60" transform="matrix(.5 0 0 .5 80 80)"/><path d="M90 80q60 10 70 60 10-70-70-60" transform="matrix(.5 0 0 .5 80 80)"/><path d="M130 50q50 10 60 50 5-55-60-50" transform="matrix(.5 0 0 .5 80 80)"/></mask></defs><g fill="#3f3f3f" mask="url(#a)"><circle cx="160" cy="160" r="120"/><path id="b" d="M120 0h80v80h-80z"/><use transform="rotate(60 160 160)" xlink:href="#b"/><use transform="rotate(120 160 160)" xlink:href="#b"/><use transform="rotate(180 160 160)" xlink:href="#b"/><use transform="rotate(240 160 160)" xlink:href="#b"/><use transform="rotate(300 160 160)" xlink:href="#b"/></g></svg>