<svg xmlns="http://www.w3.org/2000/svg" xmlns:xlink="http://www.w3.org/1999/xlink" width="320" height="320"><defs><path id="c" d="M20 20v150l75-75z"/><path id="d" d="M20 170l75-75 75 75z"/><path id="e" d="M20 170l75 75 75-75z"/><path id="f" d="M20 170v150l75-75z"/><path id="g" d="M95 245l75-75 75 75z"/><path id="h" d="M95 245l75 75 75-75z"/><path id="i" d="M170 320l75-75 75 75z"/><path id="a" d="M20 20v300l150-150-75-75-75 75 150 150 75-75H95l-75-75h150l150 150H170"/><mask id="b"><path fill="#fff" d="M0 0h320v320H0z"/><g fill="none" stroke="#000" stroke-linecap="round" stroke-linejoin="round" stroke-width="20"><use xlink:href="#a"/><use transform="rotate(180 160 160)" xlink:href="#a"/></g></mask></defs><g fill="#bfbfbf" mask="url(#b)"><use xlink:href="#c"/><use xlink:href="#d"/><use xlink:href="#e"/><use xlink:href="#f"/><use xlink:href="#g"/><use xlink:href="#h"/><use xlink:href="#i"/><g transform="rotate(180 160 160)"><use xlink:href="#c"/><use xlink:href="#d"/><use xlink:href="#e"/><use xlink:href="#f"/><use xlink:href="#g"/><use xlink:href="#h"/><use xlink:href="#i"/></g></g></svg>