<svg xmlns="http://www.w3.org/2000/svg" width="320" height="320"><defs><mask id="a"><path fill="#fff" d="M0 0h320v320H0z"/><path d="M140 0h40l20 60h-80z"/><path d="M30 65l290 215-80 40L0 80z" transform="translate(50 80) scale(.6875)"/><path d="M30 255L320 40 240 0 0 240z" transform="translate(50 80) scale(.6875)"/><path d="M240 0l80 40v240l-80 40z" transform="translate(50 80) scale(.6875)"/></mask></defs><g fill="#bfbfbf"><g mask="url(#a)"><path d="M0 60h320v260H0zM60 0h200l60 60H0z"/></g><path d="M160 0h10l2 10h-24l-2 15h28l3 15h-34l-3 20h20z"/></g></svg>