<svg xmlns="http://www.w3.org/2000/svg" width="320" height="320"><defs><mask id="a"><path fill="#fff" d="M0 0h320v320H0z"/><path d="M140 0h40l20 60h-80z"/><g transform="translate(50 80) scale(.6875)"><circle cx="30" cy="30" r="30"/><rect width="260" height="260" x="60" y="60" rx="80" ry="80"/></g><g fill="#fff" transform="translate(50 80) scale(.6875)"><circle cx="130" cy="130" r="30"/><circle cx="230" cy="230" r="50"/></g></mask></defs><g fill="#bfbfbf"><g mask="url(#a)"><path d="M0 60h320v260H0zM60 0h200l60 60H0z"/></g><path d="M160 0h10l2 10h-24l-2 15h28l3 15h-34l-3 20h20z"/></g></svg>