<svg xmlns="http://www.w3.org/2000/svg" width="320" height="320"><defs><mask id="a"><path fill="#fff" d="M0 0h320v320H0z"/><path d="M140 0h40l20 60h-80z"/><path d="M160 0Q100 160 0 320q160-120 320 0Q220 160 160 0" transform="translate(50 80) scale(.6875)"/><g fill="#fff" transform="translate(50 80) scale(.6875)"><ellipse cx="160" cy="245" rx="35" ry="60"/><path d="M110 80q20 30 50 50-40-20-60-40m200 170q-20-20-60-30 40 20 60 50"/></g></mask></defs><g fill="#bfbfbf"><g mask="url(#a)"><path d="M0 60h320v260H0zM60 0h200l60 60H0z"/></g><path d="M160 0h10l2 10h-24l-2 15h28l3 15h-34l-3 20h20z"/></g></svg>