<svg xmlns="http://www.w3.org/2000/svg" width="320" height="320"><defs><mask id="a"><path fill="#fff" d="M0 0h320v320H0z"/><path d="M140 0h40l20 60h-80z"/><g stroke="#000"><g fill="none" stroke-width="20" transform="scale(1.5 1)"><circle cx="107" cy="180" r="80" clip-path="url(#clip-black)"/><circle cx="107" cy="180" r="80" stroke="red" clip-path="url(#clip-red)"/></g><circle cx="160" cy="180" r="10"/><path fill="#fff" stroke="none" d="M0 190h320v130H0z"/><path stroke-width="10" d="M160 180l140 10"/></g><text x="50" y="280" font-family="Arial" font-size="120" font-weight="bold">rpm</text></mask></defs><g fill="#3f3f3f"><g mask="url(#a)"><path d="M0 60h320v260H0zM60 0h200l60 60H0z"/></g><path d="M160 0h10l2 10h-24l-2 15h28l3 15h-34l-3 20h20z"/></g></svg>