<svg xmlns="http://www.w3.org/2000/svg" xmlns:xlink="http://www.w3.org/1999/xlink" width="320" height="320"><defs><g id="a" fill="#3f3f3f"><path d="M64 40l32 60 32-60z"/><path d="M32 100l32-60 32 60zm0 0l32 60 32-60z"/><path d="M0 160l32-60 32 60zm0 0l32 60 32-60zm32 60l32-60 32 60zm0 0l32 60 32-60zm32 60l32-60 32 60z"/><path d="M96 220l32 60 32-60zm0 0l32-60 32 60z"/></g></defs><use xlink:href="#a"/><use transform="rotate(180 160 160)" xlink:href="#a"/><path fill="#3f3f3f" d="M128 160l32 60 32-60zm0 0l32-60 32 60z"/></svg>