<svg xmlns="http://www.w3.org/2000/svg" width="320" height="320"><defs><mask id="a"><path fill="#fff" d="M160 120q-30 0-60-20-15-10-30-10a70 70 0 00-70 70 70 70 0 0070 70q15 0 30-10 30-20 60-20t60 20q15 10 30 10a70 70 0 0070-70 70 70 0 00-70-70q-15 0-30 10-30 20-60 20"/></mask><mask id="b"><path fill="#fff" d="M0 0h320v320H0z"/><path fill="none" stroke="#000" stroke-width="50" d="M10 80c-70 100 20 160 90 120l120-80c70-40 160 20 90 120"/></mask></defs><g mask="url(#a)"><path fill="#bfbfbf" mask="url(#b)" d="M0 0h320v320H0z"/><path fill="none" stroke="#bfbfbf" stroke-width="20" d="M10 80c-70 100 20 160 90 120l120-80c70-40 160 20 90 120"/></g></svg>