<svg xmlns="http://www.w3.org/2000/svg" width="320" height="320"><defs><mask id="a"><path fill="#fff" d="M0 0h320v320H0z"/><path d="M120 40h80m-40 0v80" stroke="#000" stroke-width="20"/></mask><mask id="c"><path fill="#fff" d="M0 0h320v320H0z"/><circle cx="112" cy="180" r="3"/><circle cx="208" cy="180" r="3"/></mask><clipPath id="b"><path d="M0 0h320v100H0z"/></clipPath></defs><g stroke="#bfbfbf" stroke-width="10"><ellipse cx="160" cy="160" fill="none" rx="120" ry="155"/><g fill="#bfbfbf" mask="url(#a)"><ellipse cx="160" cy="160" clip-path="url(#b)" rx="130" ry="155"/><path d="M20 100q140-40 280 0 10 30-10 60-130-40-260 0-20-30-10-60z"/></g></g><g fill="#bfbfbf" mask="url(#c)"><circle cx="110" cy="185" r="15"/><circle cx="210" cy="185" r="15"/></g><path fill="none" stroke="#bfbfbf" stroke-width="20" d="M40 160q120-40 240 0l-10 50-20 20-70-10-10-40h-20l-10 40-70 10-20-20z"/><g fill="#bfbfbf"><path d="M100 120q-40 20-80 60 50-30 120-50"/><path d="M160 130q-30 0-60 30 50-25 100-30m10-10q-5 25-30 40 60-10 80-40"/></g><path fill="#bfbfbf" d="M120 240l40 5 40-5 20 20h40l20-10-20 40-60 10-40-20-40 20-60-10-20-40 20 10h40z"/></svg>