<?xml version="1.0" encoding="utf-8"?>
<!-- Generator: Adobe Illustrator 19.2.1, SVG Export Plug-In . SVG Version: 6.00 Build 0)  -->
<svg version="1.1" id="Layer_1" xmlns="http://www.w3.org/2000/svg" xmlns:xlink="http://www.w3.org/1999/xlink" x="0px" y="0px"
	 viewBox="0 0 36 40" style="enable-background:new 0 0 36 40;" xml:space="preserve">
<style type="text/css">
	.st0{fill:#430098;}
</style>
<title>logo</title>
<desc>Created with Sketch.</desc>
<g id="Page-1_1_">
	<g id="Desktop-Copy">
		<g id="Page-1">
			<path id="Fill-20" class="st0" d="M34,36.4c0,0.9-0.7,1.6-1.6,1.6H3.6C2.7,38,2,37.3,2,36.4V3.6C2,2.7,2.7,2,3.6,2h28.8
				C33.3,2,34,2.7,34,3.6V36.4z M32.4,0H3.6C1.6,0,0,1.6,0,3.6v32.8c0,2,1.6,3.6,3.6,3.6h28.8c2,0,3.6-1.6,3.6-3.6V3.6
				C36,1.6,34.4,0,32.4,0L32.4,0z"/>
			<polygon id="Fill-22" class="st0" points="9,34 13.5,30 9,26 			"/>
			<path id="Fill-24" class="st0" d="M25.3,17.8C24.5,17,23,16,20.5,16c-2.7,0-5.5,0.7-7.5,1.4V6H9v17.3l2.8-1.3
				c0,0,4.6-2.1,8.7-2.1c2,0,2.5,1.1,2.5,2.1V34h4V22C27,21.7,27,19.5,25.3,17.8"/>
			<path id="Fill-26" class="st0" d="M20,12.5h4c1.8-2.1,2.7-4.2,3-6.5h-4C22.6,8.3,21.6,10.4,20,12.5"/>
		</g>
	</g>
</g>
</svg>